<svg aria-hidden="true" style="position: absolute; width: 0; height: 0; overflow: hidden;" version="1.1" xmlns="http://www.w3.org/2000/svg" xmlns:xlink="http://www.w3.org/1999/xlink">
<defs>
<symbol id="icon-arrow-right" viewBox="0 0 167 32">
<path d="M165.938 16l-27.698-16v12.444h-138.24v7.111h138.24v12.444l27.698-16z"></path>
</symbol>
<symbol id="icon-calendar" viewBox="0 0 32 32">
<path d="M10.667 7.667c-0.547 0-1-0.453-1-1v-4c0-0.547 0.453-1 1-1s1 0.453 1 1v4c0 0.547-0.453 1-1 1z"></path>
<path d="M21.333 7.667c-0.547 0-1-0.453-1-1v-4c0-0.547 0.453-1 1-1s1 0.453 1 1v4c0 0.547-0.453 1-1 1z"></path>
<path d="M11.333 19.333c-0.173 0-0.347-0.040-0.507-0.107-0.173-0.067-0.307-0.16-0.44-0.28-0.24-0.253-0.387-0.587-0.387-0.947 0-0.173 0.040-0.347 0.107-0.507s0.16-0.307 0.28-0.44c0.133-0.12 0.267-0.213 0.44-0.28 0.48-0.2 1.080-0.093 1.453 0.28 0.24 0.253 0.387 0.6 0.387 0.947 0 0.080-0.013 0.173-0.027 0.267-0.013 0.080-0.040 0.16-0.080 0.24-0.027 0.080-0.067 0.16-0.12 0.24-0.040 0.067-0.107 0.133-0.16 0.2-0.253 0.24-0.6 0.387-0.947 0.387z"></path>
<path d="M16 19.333c-0.173 0-0.347-0.040-0.507-0.107-0.173-0.067-0.307-0.16-0.44-0.28-0.24-0.253-0.387-0.587-0.387-0.947 0-0.173 0.040-0.347 0.107-0.507s0.16-0.307 0.28-0.44c0.133-0.12 0.267-0.213 0.44-0.28 0.48-0.213 1.080-0.093 1.453 0.28 0.24 0.253 0.387 0.6 0.387 0.947 0 0.080-0.013 0.173-0.027 0.267-0.013 0.080-0.040 0.16-0.080 0.24-0.027 0.080-0.067 0.16-0.12 0.24-0.040 0.067-0.107 0.133-0.16 0.2-0.253 0.24-0.6 0.387-0.947 0.387z"></path>
<path d="M20.667 19.333c-0.173 0-0.347-0.040-0.507-0.107-0.173-0.067-0.307-0.16-0.44-0.28-0.053-0.067-0.107-0.133-0.16-0.2-0.053-0.080-0.093-0.16-0.12-0.24-0.040-0.080-0.067-0.16-0.080-0.24-0.013-0.093-0.027-0.187-0.027-0.267 0-0.347 0.147-0.693 0.387-0.947 0.133-0.12 0.267-0.213 0.44-0.28 0.493-0.213 1.080-0.093 1.453 0.28 0.24 0.253 0.387 0.6 0.387 0.947 0 0.080-0.013 0.173-0.027 0.267-0.013 0.080-0.040 0.16-0.080 0.24-0.027 0.080-0.067 0.16-0.12 0.24-0.040 0.067-0.107 0.133-0.16 0.2-0.253 0.24-0.6 0.387-0.947 0.387z"></path>
<path d="M11.333 24c-0.173 0-0.347-0.040-0.507-0.107s-0.307-0.16-0.44-0.28c-0.24-0.253-0.387-0.6-0.387-0.947 0-0.173 0.040-0.347 0.107-0.507 0.067-0.173 0.16-0.32 0.28-0.44 0.493-0.493 1.4-0.493 1.893 0 0.24 0.253 0.387 0.6 0.387 0.947s-0.147 0.693-0.387 0.947c-0.253 0.24-0.6 0.387-0.947 0.387z"></path>
<path d="M16 24c-0.347 0-0.693-0.147-0.947-0.387-0.24-0.253-0.387-0.6-0.387-0.947 0-0.173 0.040-0.347 0.107-0.507 0.067-0.173 0.16-0.32 0.28-0.44 0.493-0.493 1.4-0.493 1.893 0 0.12 0.12 0.213 0.267 0.28 0.44 0.067 0.16 0.107 0.333 0.107 0.507 0 0.347-0.147 0.693-0.387 0.947-0.253 0.24-0.6 0.387-0.947 0.387z"></path>
<path d="M20.667 24c-0.347 0-0.693-0.147-0.947-0.387-0.12-0.12-0.213-0.267-0.28-0.44-0.067-0.16-0.107-0.333-0.107-0.507s0.040-0.347 0.107-0.507c0.067-0.173 0.16-0.32 0.28-0.44 0.307-0.307 0.773-0.453 1.2-0.36 0.093 0.013 0.173 0.040 0.253 0.080 0.080 0.027 0.16 0.067 0.24 0.12 0.067 0.040 0.133 0.107 0.2 0.16 0.24 0.253 0.387 0.6 0.387 0.947s-0.147 0.693-0.387 0.947c-0.253 0.24-0.6 0.387-0.947 0.387z"></path>
<path d="M27.333 13.12h-22.667c-0.547 0-1-0.453-1-1s0.453-1 1-1h22.667c0.547 0 1 0.453 1 1s-0.453 1-1 1z"></path>
<path d="M21.333 30.333h-10.667c-4.867 0-7.667-2.8-7.667-7.667v-11.333c0-4.867 2.8-7.667 7.667-7.667h10.667c4.867 0 7.667 2.8 7.667 7.667v11.333c0 4.867-2.8 7.667-7.667 7.667zM10.667 5.667c-3.813 0-5.667 1.853-5.667 5.667v11.333c0 3.813 1.853 5.667 5.667 5.667h10.667c3.813 0 5.667-1.853 5.667-5.667v-11.333c0-3.813-1.853-5.667-5.667-5.667h-10.667z"></path>
</symbol>
<symbol id="icon-clock" viewBox="0 0 32 32">
<path d="M16 30.333c-7.907 0-14.333-6.427-14.333-14.333s6.427-14.333 14.333-14.333c7.907 0 14.333 6.427 14.333 14.333s-6.427 14.333-14.333 14.333zM16 3.667c-6.8 0-12.333 5.533-12.333 12.333s5.533 12.333 12.333 12.333c6.8 0 12.333-5.533 12.333-12.333s-5.533-12.333-12.333-12.333z"></path>
<path d="M20.947 21.24c-0.173 0-0.347-0.040-0.507-0.147l-4.133-2.467c-1.027-0.613-1.787-1.96-1.787-3.147v-5.467c0-0.547 0.453-1 1-1s1 0.453 1 1v5.467c0 0.48 0.4 1.187 0.813 1.427l4.133 2.467c0.48 0.28 0.627 0.893 0.347 1.373-0.2 0.32-0.533 0.493-0.867 0.493z"></path>
</symbol>
<symbol id="icon-footer1" viewBox="0 0 19 32">
<path stroke-linejoin="round" stroke-linecap="round" stroke-miterlimit="4" stroke-width="2.1818" d="M17.455 1.455h-4.364c-1.929 0-3.779 0.766-5.143 2.13s-2.13 3.214-2.13 5.143v4.364h-4.364v5.818h4.364v11.636h5.818v-11.636h4.364l1.455-5.818h-5.818v-4.364c0-0.386 0.153-0.756 0.426-1.029s0.643-0.426 1.029-0.426h4.364v-5.818z"></path>
</symbol>
<symbol id="icon-footer2" viewBox="0 0 38 32">
<path stroke-linejoin="round" stroke-linecap="round" stroke-miterlimit="4" stroke-width="2.4" d="M36.8 1.616c-1.532 1.081-3.229 1.907-5.024 2.448-0.964-1.108-2.244-1.893-3.669-2.25s-2.924-0.267-4.296 0.257c-1.372 0.524-2.55 1.456-3.375 2.671s-1.256 2.654-1.237 4.122v1.6c-2.812 0.073-5.598-0.551-8.11-1.815s-4.673-3.131-6.29-5.433c0 0-6.4 14.4 8 20.8-3.295 2.237-7.221 3.358-11.2 3.2 14.4 8 32 0 32-18.4-0.001-0.446-0.044-0.89-0.128-1.328 1.633-1.61 2.785-3.644 3.328-5.872z"></path>
</symbol>
<symbol id="icon-footer3" viewBox="0 0 32 32">
<path stroke-linejoin="round" stroke-linecap="round" stroke-miterlimit="4" stroke-width="2.1818" d="M16 30.545c8.033 0 14.545-6.512 14.545-14.545s-6.512-14.545-14.545-14.545c-8.033 0-14.545 6.512-14.545 14.545s6.512 14.545 14.545 14.545z"></path>
<path stroke-linejoin="round" stroke-linecap="round" stroke-miterlimit="4" stroke-width="2.1818" d="M10.996 2.545c6.356 8.771 8.756 13.702 11.68 25.775M26.371 5.949c-5.411 6.327-13.004 8.233-24.553 8.509M30.182 17.222c-5.091-1.353-9.644-1.193-13.004 0-3.753 1.338-7.287 4.16-10.822 9.193"></path>
</symbol>
<symbol id="icon-footer4" viewBox="0 0 34 32">
<path stroke-linejoin="round" stroke-linecap="round" stroke-miterlimit="4" stroke-width="2.2857" d="M22.857 10.667c2.425 0 4.75 0.963 6.465 2.678s2.678 4.040 2.678 6.465v10.667h-6.095v-10.667c0-0.808-0.321-1.583-0.893-2.155s-1.347-0.893-2.155-0.893c-0.808 0-1.583 0.321-2.155 0.893s-0.893 1.347-0.893 2.155v10.667h-6.095v-10.667c0-2.425 0.963-4.75 2.678-6.465s4.040-2.678 6.465-2.678v0z"></path>
<path stroke-linejoin="round" stroke-linecap="round" stroke-miterlimit="4" stroke-width="2.2857" d="M7.619 12.19h-6.095v18.286h6.095v-18.286z"></path>
<path stroke-linejoin="round" stroke-linecap="round" stroke-miterlimit="4" stroke-width="2.2857" d="M4.571 7.619c1.683 0 3.048-1.364 3.048-3.048s-1.364-3.048-3.048-3.048c-1.683 0-3.048 1.364-3.048 3.048s1.364 3.048 3.048 3.048z"></path>
</symbol>
<symbol id="icon-logo" viewBox="0 0 26 32">
<path d="M0 16c0 8.836 7.057 16 15.761 16v-32c-8.704 0-15.761 7.164-15.761 16z"></path>
<path d="M15.761 16c0 5.964 4.764 10.8 10.639 10.8v-21.6c-5.875 0-10.639 4.836-10.639 10.8z"></path>
</symbol>
<symbol id="icon-mail" viewBox="0 0 32 32">
<path stroke-linejoin="round" stroke-linecap="round" stroke-miterlimit="4" stroke-width="2.6667" d="M5.333 5.333h21.333c1.467 0 2.667 1.2 2.667 2.667v16c0 1.467-1.2 2.667-2.667 2.667h-21.333c-1.467 0-2.667-1.2-2.667-2.667v-16c0-1.467 1.2-2.667 2.667-2.667z"></path>
<path stroke-linejoin="round" stroke-linecap="round" stroke-miterlimit="4" stroke-width="2.6667" d="M29.333 8l-13.333 9.333-13.333-9.333"></path>
</symbol>
<symbol id="icon-services1" viewBox="0 0 32 32">
<path  d="M18.909 21.818c0 2.575-1.12 4.902-2.909 6.487-1.542 1.396-3.578 2.24-5.818 2.24-4.815 0-8.727-3.913-8.727-8.727 0-4.015 2.735-7.418 6.429-8.422 1.004 2.531 3.156 4.48 5.818 5.207 0.727 0.204 1.498 0.305 2.298 0.305s1.571-0.102 2.298-0.305c0.393 0.989 0.611 2.080 0.611 3.215z"></path>
<path  d="M24.727 10.182c0 1.135-0.218 2.225-0.611 3.215-1.004 2.531-3.156 4.48-5.818 5.207-0.727 0.204-1.498 0.305-2.298 0.305s-1.571-0.102-2.298-0.305c-2.662-0.727-4.815-2.676-5.818-5.207-0.393-0.989-0.611-2.080-0.611-3.215 0-4.815 3.913-8.727 8.727-8.727s8.727 3.913 8.727 8.727z"></path>
<path  d="M30.545 21.818c0 4.815-3.913 8.727-8.727 8.727-2.24 0-4.276-0.844-5.818-2.24 1.789-1.585 2.909-3.913 2.909-6.487 0-1.135-0.218-2.225-0.611-3.215 2.662-0.727 4.815-2.676 5.818-5.207 3.695 1.004 6.429 4.407 6.429 8.422z"></path>
</symbol>
<symbol id="icon-services2" viewBox="0 0 32 32">
<path stroke-linejoin="round" stroke-linecap="round" stroke-miterlimit="10" stroke-width="2.1818" d="M10.909 26.138h-0.727c-5.818 0-8.727-1.455-8.727-8.727v-7.273c0-5.818 2.909-8.727 8.727-8.727h11.636c5.818 0 8.727 2.909 8.727 8.727v7.273c0 5.818-2.909 8.727-8.727 8.727h-0.727c-0.451 0-0.887 0.218-1.164 0.582l-2.182 2.909c-0.96 1.28-2.531 1.28-3.491 0l-2.182-2.909c-0.233-0.32-0.756-0.582-1.164-0.582z"></path>
<path stroke-linejoin="round" stroke-linecap="round" stroke-miterlimit="10" stroke-width="2.1818" d="M10.182 11.2l-2.909 2.909 2.909 2.909"></path>
<path stroke-linejoin="round" stroke-linecap="round" stroke-miterlimit="10" stroke-width="2.1818" d="M21.818 11.2l2.909 2.909-2.909 2.909"></path>
<path stroke-linejoin="round" stroke-linecap="round" stroke-miterlimit="10" stroke-width="2.1818" d="M17.455 10.72l-2.909 6.778"></path>
</symbol>
<symbol id="icon-services3" viewBox="0 0 32 32">
<path stroke-linejoin="round" stroke-linecap="round" stroke-miterlimit="10" stroke-width="2.1818" d="M7.128 23.273h17.731c2.764 0 4.218-1.455 4.218-4.218v-17.6h-26.182v17.6c0.015 2.764 1.469 4.218 4.233 4.218z"></path>
<path stroke-linejoin="round" stroke-linecap="round" stroke-miterlimit="10" stroke-width="2.1818" d="M1.455 1.455h29.091"></path>
<path stroke-linejoin="round" stroke-linecap="round" stroke-miterlimit="10" stroke-width="2.1818" d="M10.182 30.545l5.818-2.909v-4.364"></path>
<path stroke-linejoin="round" stroke-linecap="round" stroke-miterlimit="10" stroke-width="2.1818" d="M21.818 30.545l-5.818-2.909"></path>
<path stroke-linejoin="round" stroke-linecap="round" stroke-miterlimit="10" stroke-width="2.1818" d="M9.455 14.545l4.582-3.825c0.364-0.305 0.844-0.218 1.091 0.189l1.745 2.909c0.247 0.407 0.727 0.48 1.091 0.189l4.582-3.825"></path>
</symbol>
<symbol id="icon-services4" viewBox="0 0 32 32">
<path stroke-linejoin="round" stroke-linecap="round" stroke-miterlimit="4" stroke-width="2.1818" d="M25.193 16c3.782 0 5.353-1.454 3.956-6.225-0.945-3.215-3.709-5.978-6.924-6.924-4.771-1.396-6.225 0.175-6.225 3.956v4.189c0 3.549 1.455 5.004 4.364 5.004h4.829z"></path>
<path stroke-linejoin="round" stroke-linecap="round" stroke-miterlimit="4" stroke-width="2.1818" d="M27.636 19.927c-1.353 6.735-7.811 11.622-15.156 10.429-5.513-0.887-9.949-5.324-10.851-10.836-1.178-7.316 3.68-13.775 10.385-15.142"></path>
</symbol>
<symbol id="icon-services5" viewBox="0 0 23 32">
<path stroke-linejoin="round" stroke-linecap="round" stroke-miterlimit="10" stroke-width="2.1818" d="M6.545 26.182h10.182c3.389 0 5.091-1.702 5.091-5.091v-10.182c0-3.389-1.702-5.091-5.091-5.091h-10.182c-3.389 0-5.091 1.702-5.091 5.091v10.182c0 3.389 1.702 5.091 5.091 5.091z"></path>
<path stroke-linejoin="round" stroke-linecap="round" stroke-miterlimit="10" stroke-width="2.1818" d="M17.455 1.455h-11.636"></path>
<path stroke-linejoin="round" stroke-linecap="round" stroke-miterlimit="10" stroke-width="2.1818" d="M17.455 30.545h-11.636"></path>
<path stroke-linejoin="round" stroke-linecap="round" stroke-miterlimit="4" stroke-width="2.1818" d="M11.636 18.909v-5.818"></path>
<path stroke-linejoin="round" stroke-linecap="round" stroke-miterlimit="4" stroke-width="2.1818" d="M16 18.909v-2.909"></path>
<path stroke-linejoin="round" stroke-linecap="round" stroke-miterlimit="4" stroke-width="2.1818" d="M7.273 18.909v-1.455"></path>
</symbol>
<symbol id="icon-services6" viewBox="0 0 32 32">
<path stroke-linejoin="round" stroke-linecap="round" stroke-miterlimit="4" stroke-width="2.1818" d="M11.636 17.455c-0.96 0.48-1.76 1.193-2.356 2.080-0.335 0.509-0.335 1.149 0 1.658 0.596 0.887 1.396 1.6 2.356 2.080"></path>
<path stroke-linejoin="round" stroke-linecap="round" stroke-miterlimit="4" stroke-width="2.1818" d="M20.669 17.455c0.96 0.48 1.76 1.193 2.356 2.080 0.335 0.509 0.335 1.149 0 1.658-0.596 0.887-1.396 1.6-2.356 2.080"></path>
<path stroke-linejoin="round" stroke-linecap="round" stroke-miterlimit="4" stroke-width="2.1818" d="M11.636 30.545h8.727c7.273 0 10.182-2.909 10.182-10.182v-8.727c0-7.273-2.909-10.182-10.182-10.182h-8.727c-7.273 0-10.182 2.909-10.182 10.182v8.727c0 7.273 2.909 10.182 10.182 10.182z"></path>
<path stroke-linejoin="round" stroke-linecap="round" stroke-miterlimit="4" stroke-width="2.1818" d="M1.789 10.196l27.956-0.015"></path>
</symbol>
<symbol id="icon-union" viewBox="0 0 37 32">
<path d="M0 32v-16c0-8.823 7.136-16 15.909-16v5.333c-5.848 0-10.606 4.785-10.606 10.667h10.606v16h-15.909zM37.12 0v5.333c-5.848 0-10.606 4.785-10.606 10.667h10.606v16h-15.909v-16c0-8.823 7.136-16 15.909-16z"></path>
</symbol>
<symbol id="icon-burger" viewBox="0 0 32 32">
<path d="M6.4 11.734v-2.134h19.2v2.134h-19.2zM6.4 17.066h19.2v-2.133h-19.2v2.133zM6.4 22.4h19.2v-2.134h-19.2v2.134z"></path>
</symbol>
<symbol id="icon-cross" viewBox="0 0 32 32">
<path d="M23.734 10.304l-1.504-1.504-5.963 5.962-5.962-5.962-1.504 1.504 5.962 5.962-5.962 5.963 1.504 1.504 5.962-5.963 5.963 5.963 1.504-1.504-5.963-5.963 5.963-5.962z"></path>
<symbol id="icon-arrow1" viewBox="0 0 32 32">
<path fill="none" stroke="#fff" style="stroke: var(--color1, #fff)" stroke-linejoin="round" stroke-linecap="round" stroke-miterlimit="4" stroke-width="2.6667" d="M9.333 22.667l13.333-13.333"></path>
<path fill="none" stroke="#fff" style="stroke: var(--color1, #fff)" stroke-linejoin="round" stroke-linecap="round" stroke-miterlimit="4" stroke-width="2.6667" d="M9.333 9.333h13.333v13.333"></path>
</symbol>
<symbol id="icon-website-arrow" viewBox="0 0 33 32">
<path fill="none" stroke="#ff694b" style="stroke: var(--color1, #ff694b)" stroke-linejoin="round" stroke-linecap="square" stroke-miterlimit="4" stroke-width="6.4" d="M5.333 26.666l21.709-21.709"></path>
<path fill="none" stroke="#ff694b" style="stroke: var(--color1, #ff694b)" stroke-linejoin="round" stroke-linecap="square" stroke-miterlimit="4" stroke-width="6.4" d="M7.349 3.2h21.709v21.709"></path>
</symbol>
<symbol id="icon-reviews-left" viewBox="0 0 37 32">
<path fill="none" stroke="#fff" style="stroke: var(--color2, #fff)" stroke-linejoin="round" stroke-linecap="square" stroke-miterlimit="4" stroke-width="5.3333" d="M15.407 27.852l-11.852-11.852 11.852-11.852"></path>
<path fill="none" stroke="#fff" style="stroke: var(--color2, #fff)" stroke-linejoin="round" stroke-linecap="square" stroke-miterlimit="4" stroke-width="5.3333" d="M32 27.852l-11.852-11.852 11.852-11.852"></path>
</symbol>
<symbol id="icon-reviews-right" viewBox="0 0 37 32">
<path fill="none" stroke="#fff" style="stroke: var(--color2, #fff)" stroke-linejoin="round" stroke-linecap="square" stroke-miterlimit="4" stroke-width="5.3333" d="M21.926 27.852l11.852-11.852-11.852-11.852"></path>
<path fill="none" stroke="#fff" style="stroke: var(--color2, #fff)" stroke-linejoin="round" stroke-linecap="square" stroke-miterlimit="4" stroke-width="5.3333" d="M5.333 27.852l11.852-11.852-11.852-11.852"></path>
</symbol>
</symbol>
</defs>
</svg>
