<svg width="34" height="34" viewBox="0 0 34 34" fill="none" xmlns="http://www.w3.org/2000/svg">
<path d="M15.5833 25.5V29.75C15.5833 30.5292 14.9458 31.1667 14.1667 31.1667C13.3875 31.1667 12.75 30.5292 12.75 29.75V25.5H15.5833Z" fill="#305DFF"/>
<path d="M21.25 25.5V29.75C21.25 30.5292 20.6125 31.1667 19.8334 31.1667C19.0542 31.1667 18.4167 30.5292 18.4167 29.75V25.5H21.25Z" fill="#305DFF"/>
<path d="M24.0834 15.5833V22.6667C24.0834 24.225 22.8084 25.5 21.25 25.5H12.75C11.1917 25.5 9.91669 24.225 9.91669 22.6667V15.5833C9.91669 14.025 11.1917 12.75 12.75 12.75H21.25C22.8084 12.75 24.0834 14.025 24.0834 15.5833Z" fill="#305DFF"/>
<path d="M7.08333 15.5833V21.25C7.08333 22.0292 6.44583 22.6667 5.66667 22.6667C4.8875 22.6667 4.25 22.0292 4.25 21.25V15.5833C4.25 14.8042 4.8875 14.1667 5.66667 14.1667C6.44583 14.1667 7.08333 14.8042 7.08333 15.5833Z" fill="#305DFF"/>
<path d="M29.75 15.5833V21.25C29.75 22.0292 29.1125 22.6667 28.3334 22.6667C27.5542 22.6667 26.9167 22.0292 26.9167 21.25V15.5833C26.9167 14.8042 27.5542 14.1667 28.3334 14.1667C29.1125 14.1667 29.75 14.8042 29.75 15.5833Z" fill="#305DFF"/>
<path d="M13.5999 10.7667H20.4C21.6467 10.7667 22.6666 9.74668 22.6666 8.50001C22.6666 5.36918 20.1308 2.83334 17 2.83334C13.8691 2.83334 11.3333 5.36918 11.3333 8.50001C11.3333 9.74668 12.3533 10.7667 13.5999 10.7667Z" fill="#305DFF"/>
</svg>
