<svg width="34" height="34" viewBox="0 0 34 34" fill="none" xmlns="http://www.w3.org/2000/svg">
<path fill-rule="evenodd" clip-rule="evenodd" d="M27.0584 27.1433C27.8942 25.8683 28.2059 25.2167 28.8434 23.7859C24.14 22.0008 23.3892 15.3 28.0359 12.7358C26.6192 10.9508 24.6217 9.91667 22.7375 9.91667C21.3775 9.91667 20.4425 10.2709 19.6067 10.5967C18.8984 10.8659 18.2609 11.1067 17.4675 11.1067C16.6175 11.1067 15.8667 10.8375 15.0734 10.5542C14.2092 10.2425 13.3025 9.91667 12.1692 9.91667C10.0584 9.91667 7.80586 11.2058 6.37503 13.4158C4.36336 16.5325 4.71753 22.3692 7.9617 27.3558C9.12336 29.1408 10.6817 31.1383 12.7075 31.1667C13.5575 31.1808 14.11 30.9259 14.7192 30.6567C15.4134 30.345 16.1642 30.005 17.4817 30.005C18.7992 29.9908 19.5359 30.345 20.23 30.6567C20.825 30.9259 21.3634 31.1808 22.1992 31.1667C24.2534 31.1383 25.8967 28.9283 27.0584 27.1433Z" fill="#00BEE6"/>
<path fill-rule="evenodd" clip-rule="evenodd" d="M22.44 2.83333C22.6666 4.39166 22.0291 5.93585 21.1933 7.01251C20.3008 8.17418 18.7425 9.08082 17.2408 9.02415C16.9716 7.52249 17.6658 5.97831 18.5158 4.94415C19.465 3.81081 21.0658 2.93249 22.44 2.83333Z" fill="#00BEE6"/>
</svg>
