<svg width="22" height="22" viewBox="0 0 22 22" fill="none" xmlns="http://www.w3.org/2000/svg">
<path d="M7.5 17.97H7C3 17.97 1 16.97 1 11.97V6.96997C1 2.96997 3 0.969971 7 0.969971H15C19 0.969971 21 2.96997 21 6.96997V11.97C21 15.97 19 17.97 15 17.97H14.5C14.19 17.97 13.89 18.12 13.7 18.37L12.2 20.37C11.54 21.25 10.46 21.25 9.79999 20.37L8.29999 18.37C8.13999 18.15 7.78 17.97 7.5 17.97Z" stroke="#FF694B" stroke-width="1.5" stroke-miterlimit="10" stroke-linecap="round" stroke-linejoin="round"/>
<path d="M7 7.69995L5 9.69995L7 11.7" stroke="#FF694B" stroke-width="1.5" stroke-miterlimit="10" stroke-linecap="round" stroke-linejoin="round"/>
<path d="M15 7.69995L17 9.69995L15 11.7" stroke="#FF694B" stroke-width="1.5" stroke-miterlimit="10" stroke-linecap="round" stroke-linejoin="round"/>
<path d="M12 7.37012L10 12.0302" stroke="#FF694B" stroke-width="1.5" stroke-miterlimit="10" stroke-linecap="round" stroke-linejoin="round"/>
</svg>
