<svg width="22" height="22" viewBox="0 0 22 22" fill="none" xmlns="http://www.w3.org/2000/svg">
<path d="M8.00002 12C7.34002 12.33 6.79002 12.82 6.38002 13.43C6.15002 13.78 6.15002 14.22 6.38002 14.57C6.79002 15.18 7.34002 15.67 8.00002 16" stroke="#FF694B" stroke-width="1.5" stroke-linecap="round" stroke-linejoin="round"/>
<path d="M14.21 12C14.87 12.33 15.42 12.82 15.83 13.43C16.06 13.78 16.06 14.22 15.83 14.57C15.42 15.18 14.87 15.67 14.21 16" stroke="#FF694B" stroke-width="1.5" stroke-linecap="round" stroke-linejoin="round"/>
<path d="M8 21H14C19 21 21 19 21 14V8C21 3 19 1 14 1H8C3 1 1 3 1 8V14C1 19 3 21 8 21Z" stroke="#FF694B" stroke-width="1.5" stroke-linecap="round" stroke-linejoin="round"/>
<path d="M1.22998 7.01L20.45 7" stroke="#FF694B" stroke-width="1.5" stroke-linecap="round" stroke-linejoin="round"/>
</svg>
