<svg width="22" height="22" viewBox="0 0 22 22" fill="none" xmlns="http://www.w3.org/2000/svg">
<path d="M13 15C13 16.77 12.23 18.37 11 19.46C9.94 20.42 8.54 21 7 21C3.69 21 1 18.31 1 15C1 12.24 2.88 9.89996 5.42 9.20996C6.11 10.95 7.59 12.29 9.42 12.79C9.92 12.93 10.45 13 11 13C11.55 13 12.08 12.93 12.58 12.79C12.85 13.47 13 14.22 13 15Z" stroke="#FF694B" stroke-width="1.5" stroke-linecap="round" stroke-linejoin="round"/>
<path d="M17 7C17 7.78 16.85 8.53 16.58 9.21C15.89 10.95 14.41 12.29 12.58 12.79C12.08 12.93 11.55 13 11 13C10.45 13 9.92 12.93 9.42 12.79C7.59 12.29 6.11 10.95 5.42 9.21C5.15 8.53 5 7.78 5 7C5 3.69 7.69 1 11 1C14.31 1 17 3.69 17 7Z" stroke="#FF694B" stroke-width="1.5" stroke-linecap="round" stroke-linejoin="round"/>
<path d="M21 15C21 18.31 18.31 21 15 21C13.46 21 12.06 20.42 11 19.46C12.23 18.37 13 16.77 13 15C13 14.22 12.85 13.47 12.58 12.79C14.41 12.29 15.89 10.95 16.58 9.20996C19.12 9.89996 21 12.24 21 15Z" stroke="#FF694B" stroke-width="1.5" stroke-linecap="round" stroke-linejoin="round"/>
</svg>
