<svg width="30" height="30" viewBox="0 0 30 30" fill="none" xmlns="http://www.w3.org/2000/svg">
<path d="M18.175 2.34998C16.6375 2.34998 15.3875 3.59995 15.3875 5.13745V10.9375C15.3875 12.475 16.6375 13.725 18.175 13.725C19.7125 13.725 20.9625 12.475 20.9625 10.9375V5.13745C20.9625 3.61245 19.7125 2.34998 18.175 2.34998Z" fill="#FF6534"/>
<path d="M25.225 8.88745C23.8875 8.88745 22.8001 9.97495 22.8001 11.3125V13.275C22.8001 13.5375 23.0126 13.75 23.2751 13.75H25.2376C26.5751 13.75 27.6626 12.6625 27.6626 11.325C27.6626 9.98747 26.5625 8.88745 25.225 8.88745Z" fill="#FF6534"/>
<path d="M10.625 8.73749H4.82497C3.28747 8.73749 2.03748 9.9875 2.03748 11.525C2.03748 13.0625 3.28747 14.3125 4.82497 14.3125H10.625C12.1625 14.3125 13.4125 13.0625 13.4125 11.525C13.4125 9.9875 12.1625 8.73749 10.625 8.73749Z" fill="#FF6534"/>
<path d="M10.9875 2.02502C9.65001 2.02502 8.56253 3.11253 8.56253 4.45003C8.56253 5.78753 9.65001 6.87503 10.9875 6.87503H12.95C13.2125 6.87503 13.425 6.66252 13.425 6.40002V4.43752C13.4125 3.12502 12.325 2.02502 10.9875 2.02502Z" fill="#FF6534"/>
<path d="M11.7875 16.2875C10.25 16.2875 9.00005 17.5375 9.00005 19.075V24.875C9.00005 26.4125 10.25 27.6625 11.7875 27.6625C13.325 27.6625 14.5751 26.4125 14.5751 24.875V19.075C14.5751 17.5375 13.325 16.2875 11.7875 16.2875Z" fill="#FF6534"/>
<path d="M6.70002 16.2875H4.73751C3.40001 16.2875 2.31253 17.375 2.31253 18.7125C2.31253 20.05 3.40001 21.1375 4.73751 21.1375C6.07501 21.1375 7.16252 20.05 7.16252 18.7125V16.75C7.16252 16.5 6.95002 16.2875 6.70002 16.2875Z" fill="#FF6534"/>
<path d="M25.1376 15.7125H19.3376C17.8001 15.7125 16.5501 16.9625 16.5501 18.5C16.5501 20.0375 17.8001 21.2875 19.3376 21.2875H25.1376C26.6751 21.2875 27.9251 20.0375 27.9251 18.5C27.9251 16.9625 26.6751 15.7125 25.1376 15.7125Z" fill="#FF6534"/>
<path d="M18.975 23.0875H17.0125C16.75 23.0875 16.5375 23.3 16.5375 23.5625V25.525C16.5375 26.8625 17.625 27.95 18.9625 27.95C20.3 27.95 21.3875 26.8625 21.3875 25.525C21.4 24.175 20.3125 23.0875 18.975 23.0875Z" fill="#FF6534"/>
</svg>
